<svg xmlns="http://www.w3.org/2000/svg" width="50" height="50" viewBox="0 0 50 50">
  <g id="Group_703" data-name="Group 703" transform="translate(-190 -533)">
    <g id="Group_702" data-name="Group 702">
      <g id="Ellipse_65" data-name="Ellipse 65" transform="translate(190 533)" fill="#fff" stroke="#0064c7" stroke-width="1">
        <circle cx="25" cy="25" r="25" stroke="none"/>
        <circle cx="25" cy="25" r="24.5" fill="none"/>
      </g>
    </g>
    <g id="Group_700" data-name="Group 700" transform="translate(200.596 547)">
      <g id="Group_697" data-name="Group 697">
        <line id="Line_202" data-name="Line 202" y1="2.72" transform="translate(3.836 18.15)" fill="none" stroke="#747474" stroke-linecap="round" stroke-miterlimit="10" stroke-width="1"/>
        <line id="Line_203" data-name="Line 203" y1="11.48" transform="translate(3.836 0)" fill="none" stroke="#747474" stroke-linecap="round" stroke-miterlimit="10" stroke-width="1"/>
        <path id="Path_1077" data-name="Path 1077" d="M7.167,14.812a3.333,3.333,0,1,1-3.333-3.333A3.333,3.333,0,0,1,7.167,14.812Z" fill="none" stroke="#747474" stroke-linecap="round" stroke-miterlimit="10" stroke-width="1"/>
        <line id="Line_204" data-name="Line 204" y1="10.822" transform="translate(14.408 10.048)" fill="none" stroke="#747474" stroke-linecap="round" stroke-miterlimit="10" stroke-width="1"/>
        <line id="Line_205" data-name="Line 205" y1="3.14" transform="translate(14.408 0.247)" fill="none" stroke="#747474" stroke-linecap="round" stroke-miterlimit="10" stroke-width="1"/>
        <path id="Path_1078" data-name="Path 1078" d="M17.737,6.717A3.333,3.333,0,1,1,14.4,3.384,3.333,3.333,0,0,1,17.737,6.717Z" fill="none" stroke="#747474" stroke-linecap="round" stroke-miterlimit="10" stroke-width="1"/>
        <line id="Line_206" data-name="Line 206" y1="3.64" transform="translate(24.971 17.23)" fill="none" stroke="#747474" stroke-linecap="round" stroke-miterlimit="10" stroke-width="1"/>
        <line id="Line_207" data-name="Line 207" y1="10.56" transform="translate(24.971 0)" fill="none" stroke="#747474" stroke-linecap="round" stroke-miterlimit="10" stroke-width="1"/>
        <path id="Path_1079" data-name="Path 1079" d="M28.308,13.892a3.333,3.333,0,1,1-3.333-3.333A3.333,3.333,0,0,1,28.308,13.892Z" fill="none" stroke="#747474" stroke-linecap="round" stroke-miterlimit="10" stroke-width="1"/>
      </g>
    </g>
  </g>
</svg>
