<svg xmlns="http://www.w3.org/2000/svg" xmlns:xlink="http://www.w3.org/1999/xlink" width="39.774" height="39.774" viewBox="0 0 39.774 39.774">
    <defs>
        <clipPath id="clip-path">
            <path id="Path_267" data-name="Path 267" d="M19.517.5A19.017,19.017,0,1,0,38.534,19.514,19.017,19.017,0,0,0,19.517.5" transform="translate(-0.5 -0.497)" fill="#fff"/>
        </clipPath>
        <clipPath id="clip-path-2">
            <rect id="Rectangle_147" data-name="Rectangle 147" width="40.587" height="43.308" fill="none" stroke="rgba(0,0,0,0)" stroke-width="1"/>
        </clipPath>
        <clipPath id="clip-path-3">
            <circle id="Ellipse_10" data-name="Ellipse 10" cx="20.293" cy="20.293" r="20.293" fill="none" stroke="rgba(0,0,0,0)" stroke-width="1"/>
        </clipPath>
        <clipPath id="clip-path-4">
            <rect id="Rectangle_144" data-name="Rectangle 144" width="12.001" height="10.033" fill="none" stroke="rgba(0,0,0,0)" stroke-width="1"/>
        </clipPath>
        <clipPath id="clip-path-5">
            <rect id="Rectangle_145" data-name="Rectangle 145" width="3.619" height="2.999" fill="none" stroke="rgba(0,0,0,0)" stroke-width="1"/>
        </clipPath>
    </defs>
    <g id="Group_109" data-name="Group 109" transform="translate(0 0)">
        <circle id="Ellipse_11" data-name="Ellipse 11" cx="19.887" cy="19.887" r="19.887" transform="translate(0 0)" fill="#fff"/>
        <g id="Mask_Group_1" data-name="Mask Group 1" transform="translate(1.189 0.2)" clip-path="url(#clip-path)">
            <g id="Group_106" data-name="Group 106" transform="translate(-1.276 -1.282)">
                <g id="Group_105" data-name="Group 105" clip-path="url(#clip-path-2)">
                    <g id="Group_104" data-name="Group 104" transform="translate(0 0)">
                        <g id="Group_103" data-name="Group 103" clip-path="url(#clip-path-3)">
                            <path id="Path_612" data-name="Path 612" d="M362.684,495.519c-.007.076-.018.151-.019.227,0,.486,0,2.264-.006,2.75a5.706,5.706,0,0,0,2.227,2.788,11.584,11.584,0,0,1,.9.809,13.046,13.046,0,0,1,1.289,1.367.452.452,0,0,1,.128.211c.089.021.143-.044.208-.084a7.48,7.48,0,0,1,.921-1.051c.609-.613,1.269-1.167,1.932-1.72a5,5,0,0,0,1.5-1.91c.055-.134.1-.274.143-.411,0-.465,0-2.222-.005-2.687,0-.072.029-.156-.054-.208a.062.062,0,0,0-.028-.005,5.835,5.835,0,0,1-5.056,2.047,5.705,5.705,0,0,1-4.087-2.124" transform="translate(-347.394 -474.661)" fill="#faab7b" stroke="rgba(0,0,0,0)" stroke-width="1"/>
                            <path id="Path_613" data-name="Path 613" d="M390.4,690.7c-.05.125-.17.245-.024.382a.964.964,0,0,1,0,.1c-.065.985-.145,1.971-.194,2.957-.073,1.463-.129,2.927-.183,4.391,0,.078-.006.156-.009.234a20.454,20.454,0,0,1-6.971-.08c-.008-.1-.019-.19-.03-.285-.069-.6-.069-1.207-.092-1.812-.025-.656.02-1.312-.032-1.97-.045-.562-.005-1.13-.047-1.695-.021-.291-.043-.583-.055-.874-.024-.576-.1-1.15-.07-1.728a1.1,1.1,0,0,0,.534-.3c.171-.182.42-.289.559-.5.161-.243.323-.486.5-.717a3.526,3.526,0,0,1,2.025-1.433.094.094,0,0,0,.08-.083c.089.021.144-.044.208-.084a.563.563,0,0,1,.409.241.129.129,0,0,0,.093.043,1.767,1.767,0,0,1,.848.457,2.759,2.759,0,0,1,.905,1.073,3.235,3.235,0,0,0,.933,1.079c.188.157.447.214.631.388a.354.354,0,0,1-.023.207" transform="translate(-366.586 -658.285)" fill="#d6d8d7" stroke="rgba(0,0,0,0)" stroke-width="1"/>
                            <path id="Path_614" data-name="Path 614" d="M78.874,598.223a20.279,20.279,0,0,1-13.7-9.56,5.6,5.6,0,0,1,1.783-1.619c2.818-1.474,7.89-3.453,9.372-4.289.171-.1.582-.37.582-.37s.121-.041.146-.054a3.928,3.928,0,0,0,.141,1.09c.044.158.024.314.055.47.082.418.234.813.356,1.218a22.469,22.469,0,0,1,.856,4.143,1.453,1.453,0,0,0,.08.607c-.025.578.046,1.152.07,1.728.012.292.033.583.055.874.042.565,0,1.133.047,1.695.053.658.008,1.314.032,1.97.023.6.023,1.212.092,1.812.011.1.021.19.029.285" transform="translate(-62.434 -557.82)" fill="#0064c7" stroke="rgba(0,0,0,0)" stroke-width="1"/>
                            <path id="Path_615" data-name="Path 615" d="M569.765,588.643c-1.474-.657-11.54-6.152-11.845-6.311a9.658,9.658,0,0,1-.091,1.44,3.7,3.7,0,0,1-.3.935,6.346,6.346,0,0,0-.459,1.6c-.107.556-.191,1.114-.256,1.675-.079.68-.147,1.361-.219,2.042a.355.355,0,0,1-.023.207l-.024.382a1,1,0,0,1,0,.1c-.065.985-.145,1.971-.194,2.957-.073,1.463-.129,2.927-.183,4.391,0,.078-.006.156-.009.235a20.269,20.269,0,0,0,14.049-9.454q-.225-.105-.452-.207" transform="translate(-532.757 -557.82)" fill="#0064c7" stroke="rgba(0,0,0,0)" stroke-width="1"/>
                            <path id="Path_616" data-name="Path 616" d="M475.626,571.328a7.474,7.474,0,0,1,.921-1.051c.609-.614,1.269-1.167,1.932-1.72a5,5,0,0,0,1.5-1.91c.055-.134.1-.274.143-.411.262.018.293.28.441.42a2.115,2.115,0,0,1,.2.257,9.655,9.655,0,0,1-.091,1.44,3.714,3.714,0,0,1-.3.935,6.348,6.348,0,0,0-.459,1.6c-.107.556-.19,1.114-.256,1.675-.079.68-.147,1.362-.219,2.042-.183-.174-.443-.231-.63-.388a3.237,3.237,0,0,1-.933-1.079,2.763,2.763,0,0,0-.905-1.073,1.769,1.769,0,0,0-.848-.457.129.129,0,0,1-.093-.043.563.563,0,0,0-.409-.241" transform="translate(-455.606 -542.402)" fill="#e0e5e5" stroke="rgba(0,0,0,0)" stroke-width="1"/>
                            <path id="Path_617" data-name="Path 617" d="M348.123,566.257a5.7,5.7,0,0,0,2.227,2.788,11.6,11.6,0,0,1,.9.809,13.039,13.039,0,0,1,1.289,1.367.452.452,0,0,1,.128.211.094.094,0,0,1-.08.083,3.525,3.525,0,0,0-2.026,1.433c-.178.231-.339.474-.5.717-.139.21-.388.317-.559.5a1.1,1.1,0,0,1-.534.3,1.449,1.449,0,0,1-.08-.606,22.467,22.467,0,0,0-.856-4.143c-.122-.405-.273-.8-.356-1.218-.031-.156-.011-.312-.055-.47a3.926,3.926,0,0,1-.141-1.09,2.166,2.166,0,0,1,.639-.677" transform="translate(-332.858 -542.422)" fill="#e0e5e5" stroke="rgba(0,0,0,0)" stroke-width="1"/>
                            <path id="Path_618" data-name="Path 618" d="M563.683,770.074l-.024.382c-.146-.137-.026-.257.024-.382" transform="translate(-539.866 -737.659)" fill="#e0e5e5" stroke="rgba(0,0,0,0)" stroke-width="1"/>
                            <path id="Path_619" data-name="Path 619" d="M776.582,927.436l-.052.017,0,0c.015-.01.029-.02.044-.029l.01.014" transform="translate(-743.842 -888.384)" fill="#525252" stroke="rgba(0,0,0,0)" stroke-width="1"/>
                            <path id="Path_620" data-name="Path 620" d="M170.748,748.56h0a.006.006,0,0,0,0,0Z" transform="translate(-163.558 -717.051)" fill="#faab7b" stroke="rgba(0,0,0,0)" stroke-width="1"/>
                            <path id="Path_621" data-name="Path 621" d="M342.137,182.332a2.421,2.421,0,0,0-1.01-1.781l-.078-.05a3.739,3.739,0,0,0-2.315-.172,3.813,3.813,0,0,1-2.065-.1c-.389-.119-.748-.308-1.129-.444l-.1-.031a1.568,1.568,0,0,1-.184-.031,2.642,2.642,0,0,0-1.987.186c-.179.091-.362.175-.543.262a.6.6,0,0,1-.217.134.853.853,0,0,1-.253.166.182.182,0,0,1-.117.082,1.306,1.306,0,0,1-.389.255l-.042.037a2.65,2.65,0,0,1-1.012.543.211.211,0,0,1-.164.041,11.287,11.287,0,0,0-.265,4.326,6.583,6.583,0,0,1,.082,1.022,7.465,7.465,0,0,0-.034.786l-.069,0a8.441,8.441,0,0,0,.463,3.754,7.665,7.665,0,0,0,.376,1.114h0a3.321,3.321,0,0,0,.244.528q.149.3.319.587a9.07,9.07,0,0,0,.777,1.038l.023.027.024.03.021.026.023.027a.214.214,0,0,0,.12.072c0-.04.006-.08.01-.125.134.051.189.17.267.266a3.83,3.83,0,0,0,2.763,1.408,4.987,4.987,0,0,0,2.474-.323c.057-.025.111-.058.166-.087.057-.1.114-.2.246-.218l.04-.044h0l.016.017-.045.038-.044.094a2.815,2.815,0,0,0,1.054-.895c.154-.075.151-.29.319-.352l-.071.3a6.372,6.372,0,0,0,.963-1.224.064.064,0,0,1,.028.005,2.488,2.488,0,0,0,.185-.375,4.61,4.61,0,0,0-.627.561,4.589,4.589,0,0,1,.627-.561c.03-.047.064-.091.09-.141a10.8,10.8,0,0,0,1.142-4.766c-.036-.049.026-.135-.056-.161-.017-.005-.051.04-.077.062a11.423,11.423,0,0,1-.883,1.97,7.486,7.486,0,0,1-1.452,1.8h0a7.488,7.488,0,0,0,1.449-1.794,11.439,11.439,0,0,0,.883-1.97l.121-.59c.052-.251-.119-.471-.112-.708.031-1.1.082-2.206.134-3.309a4.357,4.357,0,0,0-.111-1.306" transform="translate(-316.288 -172.047)" fill="#faab7b" stroke="rgba(0,0,0,0)" stroke-width="1"/>
                            <path id="Path_622" data-name="Path 622" d="M525.38,559.931l.04-.044.016.017-.045.038Z" transform="translate(-503.265 -536.32)" fill="#272727" stroke="rgba(0,0,0,0)" stroke-width="1"/>
                            <path id="Path_623" data-name="Path 623" d="M451.3,498.914l-.053.066a.073.073,0,0,1,.053-.066" transform="translate(-432.252 -477.913)" fill="#030202" stroke="rgba(0,0,0,0)" stroke-width="1"/>
                            <path id="Path_624" data-name="Path 624" d="M492.7,502.681l-.041-.062.041.062" transform="translate(-471.919 -481.462)" fill="#030202" stroke="rgba(0,0,0,0)" stroke-width="1"/>
                            <path id="Path_625" data-name="Path 625" d="M588.212,166.529a4.165,4.165,0,0,1,.464,1.684,10.624,10.624,0,0,1-.19,3.214c-.042.2-.07.412-.1.618a.259.259,0,0,0-.042.069c-.167.714-.426,1.4-.653,2.095a1.762,1.762,0,0,0-.185.694l-.046-.085c.052-.251-.119-.471-.112-.708.031-1.1.082-2.206.134-3.309a4.35,4.35,0,0,0-.111-1.306,2.422,2.422,0,0,0-1.01-1.781c.037-.1.174-.136.175-.261h0c.15-.037.219-.181.339-.257a1.449,1.449,0,0,0,.4-.33c.067,0,.16-.029.121-.094-.06-.1.013-.124.054-.167.1-.107.211-.206.31-.314.066-.071.1-.082.174,0s.145.212.284.235" transform="translate(-561.675 -159.236)" fill="#030202" stroke="rgba(0,0,0,0)" stroke-width="1"/>
                            <path id="Path_626" data-name="Path 626" d="M306.4,223.942a6.629,6.629,0,0,0-.082-1.022,11.291,11.291,0,0,1,.265-4.326,2.3,2.3,0,0,1-1.2-.118.418.418,0,0,0-.2-.05,13.241,13.241,0,0,0,.083,2.091c.063.513.181,1.015.266,1.523.237.966.473,1.933.713,2.9Z" transform="translate(-292.33 -209.23)" fill="#060505" stroke="rgba(0,0,0,0)" stroke-width="1"/>
                            <path id="Path_627" data-name="Path 627" d="M295.393,302.256c.237.966.473,1.933.713,2.9a1.1,1.1,0,0,1,.039.474.74.74,0,0,1-.571-.345,4.7,4.7,0,0,1-.814-1.572c-.048-.153-.1-.306-.132-.461-.146-.629.131-.986.766-.994" transform="translate(-282.189 -289.533)" fill="#f8906a" stroke="rgba(0,0,0,0)" stroke-width="1"/>
                            <path id="Path_628" data-name="Path 628" d="M613.488,307.143a1.766,1.766,0,0,1,.185-.695c.227-.7.487-1.38.653-2.095a.263.263,0,0,1,.042-.069.548.548,0,0,1,.626.551,1.166,1.166,0,0,1,0,.355,5.146,5.146,0,0,1-.968,2.13.776.776,0,0,1-.537.328v-.507" transform="translate(-587.662 -291.477)" fill="#f8906a" stroke="rgba(0,0,0,0)" stroke-width="1"/>
                            <path id="Path_629" data-name="Path 629" d="M609.734,370.254v.507l-.034.1c-.036-.049.026-.135-.056-.161-.017-.006-.051.04-.077.062l.121-.59.046.085" transform="translate(-583.909 -354.588)" fill="#faab7b" stroke="rgba(0,0,0,0)" stroke-width="1"/>
                            <path id="Path_630" data-name="Path 630" d="M349.493,281.314l-.12.657-.1-.227-.142.141-.54-.057a2.456,2.456,0,0,0-.966-.1l-1.152-.122c-.367-.063-.734-.044-1.156-.1a3.137,3.137,0,0,1,2.051-.475c.169.04.13-.127.211-.129a3.184,3.184,0,0,1,1.748.282.4.4,0,0,1,.163.139" transform="translate(-330.784 -269.063)" fill="#0f0808" stroke="rgba(0,0,0,0)" stroke-width="1"/>
                            <path id="Path_631" data-name="Path 631" d="M493.094,281.314l.12.657.1-.227.142.141.539-.057a2.456,2.456,0,0,1,.966-.1l1.152-.122c.367-.063.734-.044,1.156-.1a3.137,3.137,0,0,0-2.051-.475c-.169.04-.13-.127-.211-.129a3.185,3.185,0,0,0-1.749.282.4.4,0,0,0-.163.139" transform="translate(-472.338 -269.063)" fill="#0f0808" stroke="rgba(0,0,0,0)" stroke-width="1"/>
                            <path id="Path_632" data-name="Path 632" d="M361.591,281.314l-.119.657-.1-.227-.142.141-.54-.057a2.456,2.456,0,0,0-.966-.1l-1.152-.122c-.367-.063-.734-.044-1.156-.1a3.136,3.136,0,0,1,2.051-.475c.169.04.13-.127.211-.129a3.184,3.184,0,0,1,1.748.282.4.4,0,0,1,.163.139" transform="translate(-342.372 -269.063)" fill="#0f0808" stroke="rgba(0,0,0,0)" stroke-width="1"/>
                            <path id="Path_633" data-name="Path 633" d="M384.658,538.985h0a.006.006,0,0,0,0,0Z" transform="translate(-368.464 -516.297)" fill="#0f0808" stroke="rgba(0,0,0,0)" stroke-width="1"/>
                            <g id="Group_96" data-name="Group 96" transform="translate(13.954 14.355)" opacity="0.32">
                                <g id="Group_95" data-name="Group 95">
                                    <g id="Group_94" data-name="Group 94" clip-path="url(#clip-path-4)">
                                        <path id="Path_634" data-name="Path 634" d="M331.9,345.631a10.939,10.939,0,0,0,1.033,2.64,9.06,9.06,0,0,0,.777,1.038l.023.027.024.03.021.026a.339.339,0,0,0,.023.027.214.214,0,0,0,.12.072c0-.04.006-.08.011-.125.134.051.189.17.267.266a3.831,3.831,0,0,0,2.763,1.408,4.987,4.987,0,0,0,2.474-.323c.057-.025.111-.058.166-.087.057-.1.114-.2.246-.218l.04-.044.016.017-.045.038-.044.094a2.814,2.814,0,0,0,1.054-.895c.154-.075.151-.29.319-.352l-.071.3a6.371,6.371,0,0,0,.963-1.224.063.063,0,0,1,.028.005,2.5,2.5,0,0,0,.185-.375,4.6,4.6,0,0,0-.627.561,4.592,4.592,0,0,1,.627-.561c.03-.047.064-.091.09-.141a10.8,10.8,0,0,0,1.142-4.766c-.036-.049.026-.135-.056-.161-.017-.005-.051.04-.077.062a11.438,11.438,0,0,1-.883,1.97,7.488,7.488,0,0,1-1.452,1.8c-.022-.283-.052-.537-.057-.791a1.138,1.138,0,0,0-.786-1.1c-.584-.252-1.148-.549-1.717-.833a.225.225,0,0,0-.292.023c-.6.5-.719.5-1.334,0a.216.216,0,0,0-.276-.031q-.928.487-1.885.915a.973.973,0,0,0-.619.878c-.016.3-.044.6-.069.918-.226-.147,1.284,1.16-.553-.517s-1.791-5.139-1.842-5.17a19.786,19.786,0,0,0-.078,2.871,13.1,13.1,0,0,0,.353,1.724m.51-.666s0-.009,0-.014m3.846,3.272a.286.286,0,0,0,.386-.079l.026-.026-.027.026a.286.286,0,0,1-.385.079m.554-.4h0m.01.179-.007.006.007-.006m-.145.112,0,0,0,0m.164-.129,0,0,0,0m.039-.065v0m-.019.043,0-.006,0,.006m.013-.022v0m0-.065v0m.009.021h0m.474-.174a.3.3,0,0,1-.112.188.3.3,0,0,0,.112-.188,1.331,1.331,0,0,0-.048-.556c0-.031-.014-.066-.016-.1,0,.031.013.066.016.1a1.33,1.33,0,0,1,.048.556m.008-.745a.1.1,0,0,0-.057.03.1.1,0,0,1,.057-.03.081.081,0,0,1,.081.018.081.081,0,0,0-.081-.018m.137.258a2.5,2.5,0,0,0,.135.457,2.494,2.494,0,0,1-.135-.457m.567.852a.2.2,0,0,1,.275.032.2.2,0,0,0-.275-.032m.385.137a.308.308,0,0,0,.462-.156h0a.308.308,0,0,1-.463.156m.062-.206h0c.012.021.022.038.032.053-.01-.015-.02-.032-.033-.053m1.627-.633c0,.071-.056.093-.1.12a5.26,5.26,0,0,1-1.236.517.621.621,0,0,1-.288,0h0l-.04-.061c-.069-.07-.138-.139-.206-.209a.506.506,0,0,1,.047-.808c.088-.075.156-.147.111-.266s-.149-.133-.26-.133q-.589,0-1.178,0a.261.261,0,0,0-.257.107c-.062.1.007.177.049.268.118.256.268.516.077.8h0l-.078.081h0l-.051.065a.484.484,0,0,1-.577.115.236.236,0,0,0-.083-.007h0a5.725,5.725,0,0,1-1-.462c-.061-.033-.124-.062-.122-.153.006-.273,0-.546.013-.819a.322.322,0,0,1,.321-.338c.485-.067.966-.158,1.45-.238a1.629,1.629,0,0,0,.736-.288c.043-.033.081-.077.141-.015a1.588,1.588,0,0,0,1.019.381,8.016,8.016,0,0,0,1.049.047.365.365,0,0,1,.429.33,5.265,5.265,0,0,1,.038.964m.593,2.142h0m-.128.126c-.056.041-.11.084-.163.129.053-.044.107-.088.163-.129a.155.155,0,0,1,.1-.119.156.156,0,0,0-.1.119m.123-.059a.171.171,0,0,0,.016-.054.171.171,0,0,1-.016.054m.009-.063.007.007-.007-.007m.544-.55.01.012-.01-.012" transform="translate(-331.517 -341.036)" fill="#0f0808" stroke="rgba(0,0,0,0)" stroke-width="1"/>
                                    </g>
                                </g>
                            </g>
                            <g id="Group_99" data-name="Group 99" transform="translate(16.114 29.093)" opacity="0.19">
                                <g id="Group_98" data-name="Group 98">
                                    <g id="Group_97" data-name="Group 97" clip-path="url(#clip-path-5)">
                                        <path id="Path_635" data-name="Path 635" d="M382.819,694.122l2.78-1.321-.206.66.622-.66.423-1.625a3.8,3.8,0,0,0-2.513,1.757c-1.109,1.622-1.106,1.189-1.106,1.189" transform="translate(-382.819 -691.176)" fill="#030202" stroke="rgba(0,0,0,0)" stroke-width="1"/>
                                    </g>
                                </g>
                            </g>
                            <g id="Group_102" data-name="Group 102" transform="translate(20.333 29.093)" opacity="0.19">
                                <g id="Group_101" data-name="Group 101">
                                    <g id="Group_100" data-name="Group 100" clip-path="url(#clip-path-5)">
                                        <path id="Path_636" data-name="Path 636" d="M486.667,694.122l-2.78-1.321.206.66-.622-.66-.423-1.625a3.8,3.8,0,0,1,2.513,1.757c1.109,1.622,1.106,1.189,1.106,1.189" transform="translate(-483.048 -691.176)" fill="#030202" stroke="rgba(0,0,0,0)" stroke-width="1"/>
                                    </g>
                                </g>
                            </g>
                            <path id="Path_637" data-name="Path 637" d="M467.976,730.9a.331.331,0,1,1-.331-.331.331.331,0,0,1,.331.331" transform="translate(-447.643 -699.818)" fill="#030202" stroke="rgba(0,0,0,0)" stroke-width="1"/>
                            <path id="Path_638" data-name="Path 638" d="M467.976,836.472a.331.331,0,1,1-.331-.331.331.331,0,0,1,.331.331" transform="translate(-447.643 -800.945)" fill="#030202" stroke="rgba(0,0,0,0)" stroke-width="1"/>
                            <path id="Path_639" data-name="Path 639" d="M467.976,938.993a.331.331,0,1,1-.331-.331.331.331,0,0,1,.331.331" transform="translate(-447.643 -899.151)" fill="#030202" stroke="rgba(0,0,0,0)" stroke-width="1"/>
                            <path id="Path_640" data-name="Path 640" d="M314.952,88.868a2.949,2.949,0,0,0-.763-.908,1.553,1.553,0,0,1-.56-.753,3.032,3.032,0,0,0-1.667-1.536,1.422,1.422,0,0,0-.325-.172,3.082,3.082,0,0,0-.351-.107,2.557,2.557,0,0,0-.751-.177c-4.831-.45-9.415,2.9-9.415,2.9l.314,2.791-.063.265a2.032,2.032,0,0,0,2.465-.277c1.07-1.12,2.222-2.117,3.673-1.351a5.133,5.133,0,0,0,3.187.907l.033,0c.056-.008.112-.018.169-.029h0l.159-.02.108-.021c1.4-.287,1.759-.289,2.1.156l.087.026.138-.16a.25.25,0,0,1,.115-.051h0a.675.675,0,0,1,.32-.345,1.075,1.075,0,0,1,.353-.339,1.556,1.556,0,0,1,.4-.447c.122-.12.176-.211.013-.33a.053.053,0,0,1-.009-.082c.09.006.123.1.189.14.123.079.051-.052.08-.075m-8.177-1.025,0,0,0,0,.014.012-.014-.012m1.959-1.084h0l0,0,0,0m1.6-.228h0a.061.061,0,0,0,.005.012.054.054,0,0,1-.005-.011" transform="translate(-288.444 -81.589)" fill="#030202" stroke="rgba(0,0,0,0)" stroke-width="1"/>
                        </g>
                    </g>
                </g>
            </g>
        </g>
    </g>
</svg>
