<svg xmlns="http://www.w3.org/2000/svg" width="123.14" height="61.677" viewBox="0 0 123.14 61.677">
  <g id="Group_24" data-name="Group 24" transform="translate(-43.55)">
    <g id="Group_25" data-name="Group 25">
      <path id="Path_513" data-name="Path 513" d="M50.068,29.114v4.933a13.95,13.95,0,0,1-6.518-2.054v-6.11a2.468,2.468,0,0,1,.708.5,9.322,9.322,0,0,0,5.81,2.731" fill="#0064c7"/>
      <path id="Path_514" data-name="Path 514" d="M166.69,35.444c-.047.468-.093.936-.144,1.452H150.731V32.708h9.194c-.273-.327-.451-.573-.661-.787-1.246-1.268-2.516-2.511-3.742-3.8a2.237,2.237,0,0,0-1.943-.839,4.83,4.83,0,0,1-.837-.066,3.631,3.631,0,0,1,.271-.385c1.122-1.164,2.253-2.32,3.369-3.49.372-.39.672-.372,1.05.008q3.886,3.906,7.8,7.787a5.964,5.964,0,0,1,1.462,2.628Z" fill="#0064c7"/>
      <path id="Path_515" data-name="Path 515" d="M117.781,37.006h-.752c-5.589,0-18.346-.014-18.346-.014l-3.072,2.53a4.992,4.992,0,0,1-6.483-.117l-.176-.157,3.824-2.914-.217-.112A6.991,6.991,0,0,1,88.59,30.9a6.751,6.751,0,0,1,.971-4.7,7.018,7.018,0,0,1,8.455-2.9c3.559,1.34,4.986,4.482,4.15,9.2h9.291c-.222-.248-.38-.439-.553-.615q-.885-.9-1.773-1.793-.988-1-1.966-2.006a2.279,2.279,0,0,0-2.028-.791,8.3,8.3,0,0,1-.934.005c.212-.258.332-.432.479-.581q1.643-1.659,3.295-3.309c.487-.483.7-.483,1.2.016q4.033,4.054,8.057,8.118a1.764,1.764,0,0,1,.552,1.336c-.017,1.352-.005,2.7-.005,4.122M93.347,29.854a2.169,2.169,0,0,0,2.165,2.23,2.213,2.213,0,1,0,.036-4.425,2.171,2.171,0,0,0-2.2,2.195" fill="#0064c7"/>
      <path id="Path_516" data-name="Path 516" d="M126.485,34.939A9.7,9.7,0,0,1,118.69,36.8V31.97c.859,0,1.693-.036,2.522.008,1.233.067,2.512-.221,4.062-2.037a3.061,3.061,0,0,1,3.3-.988,8.6,8.6,0,0,0,.019,1.571c.058.329.184,1.431,1.278,1.431a3.152,3.152,0,0,0,2.324-1.267c.252-.286,1.177-1.735,1.711-1.934.56-.209,1.124-.166,1.249.6.071.431.1.872.159,1.306.138,1,.69,1.369,1.686,1.34,1.421-.04,2.336-1.713,2.6-2.112.611-.919,1.161-1.349,2.311-1.008.043.519.083,1.054.132,1.588.111,1.224.8,1.8,1.961,1.417a4.953,4.953,0,0,0,2.466-2.291,1.937,1.937,0,0,1,2.235-.714s0,1.123.02,1.461c0,2.15,1.575,2.385,1.575,2.385V36.9c-.093-.005-.677.055-.766.044a3.74,3.74,0,0,1-2.847-2c-1.016.978-1.947,2.055-3.453,2.1-1.542.047-2.425-1.039-3.362-2.109-.871,1.106-1.724,2.214-3.342,2.078a4.036,4.036,0,0,1-3.381-2.168c-.882,1.12-1.639,2.329-3.291,2.184a4.116,4.116,0,0,1-3.37-2.086" fill="#0064c7"/>
      <path id="Path_517" data-name="Path 517" d="M58.838,20.024a7.644,7.644,0,1,1-7.644-7.647,7.629,7.629,0,0,1,7.644,7.647M51.2,26.243a6.229,6.229,0,1,0-6.235-6.206A6.23,6.23,0,0,0,51.2,26.243" fill="#0064c7"/>
      <path id="Path_518" data-name="Path 518" d="M96.166,17.3c-.838,1.15-1.6,2.342-3.22,2.208a3.893,3.893,0,0,1-3.393-2.123,9.575,9.575,0,0,1-7.734,1.9V14.439c.859,0,1.695-.046,2.524.011a3.552,3.552,0,0,0,2.844-.986c.549-.523,1.148-1,1.676-1.539a1.5,1.5,0,0,1,1.321-.514c.393.041.794.008,1.251.008.054.534.108,1.042.156,1.549.135,1.415,1.12,1.95,2.357,1.272a5.587,5.587,0,0,0,2.151-2.2,1.018,1.018,0,0,1,1.131-.63,6.651,6.651,0,0,0,.931.008L98.319,13c.12,1.2.884,1.786,2.028,1.408a5.6,5.6,0,0,0,1.629-1.031,3.707,3.707,0,0,0,.661-.919c.762-1.178.76-1.179,2.355-.968a27.468,27.468,0,0,1-.867,3.328,10.64,10.64,0,0,1-1.608,2.906c-1.708,2.066-4.579,2.523-6.351-.422" fill="#0064c7"/>
      <path id="Path_519" data-name="Path 519" d="M121.467,18.664a2.688,2.688,0,0,1,2.672,2.658,2.727,2.727,0,0,1-2.667,2.618,2.569,2.569,0,0,1-2.608-2.675,2.519,2.519,0,0,1,2.6-2.6" fill="#0064c7"/>
      <path id="Path_520" data-name="Path 520" d="M127.445,18.664a2.591,2.591,0,0,1,2.637,2.6,2.639,2.639,0,1,1-5.278-.01,2.574,2.574,0,0,1,2.641-2.588" fill="#0064c7"/>
      <path id="Path_521" data-name="Path 521" d="M76.34,2.7a2.629,2.629,0,0,1-5.257-.029A2.616,2.616,0,0,1,73.722.059,2.643,2.643,0,0,1,76.34,2.7" fill="#0064c7"/>
      <path id="Path_522" data-name="Path 522" d="M100.669,8.9a2.62,2.62,0,1,1,.073-5.24,2.651,2.651,0,0,1,2.6,2.667,2.6,2.6,0,0,1-2.67,2.573" fill="#0064c7"/>
      <path id="Path_523" data-name="Path 523" d="M90.518,6.3A2.63,2.63,0,1,1,87.9,3.658,2.648,2.648,0,0,1,90.518,6.3" fill="#0064c7"/>
      <path id="Path_524" data-name="Path 524" d="M94.041,8.9A2.568,2.568,0,0,1,91.463,6.25a2.58,2.58,0,0,1,2.643-2.592,2.657,2.657,0,0,1,2.6,2.663A2.619,2.619,0,0,1,94.041,8.9" fill="#0064c7"/>
      <path id="Path_525" data-name="Path 525" d="M152.344,42.383a2.524,2.524,0,0,1,2.689-2.516,2.6,2.6,0,1,1-.161,5.2,2.546,2.546,0,0,1-2.528-2.688" fill="#0064c7"/>
      <path id="Path_526" data-name="Path 526" d="M112.792,39.867a2.6,2.6,0,1,1-2.609,2.614,2.55,2.55,0,0,1,2.609-2.614" fill="#0064c7"/>
      <path id="Path_527" data-name="Path 527" d="M89.554,47.248a2.544,2.544,0,0,1-2.6,2.612,2.6,2.6,0,1,1,2.6-2.612" fill="#0064c7"/>
      <path id="Path_528" data-name="Path 528" d="M83.714,55.339h1.854v4.794H79.21c-.077,0-.155-.016-.326-.033v-.694c0-2.636.013-5.271,0-7.908a3.662,3.662,0,0,0-7.218-1.061,3.293,3.293,0,0,0,2.354,3.837c.038.013.217.056.466.113a2.409,2.409,0,0,1-.545,4.755,2.5,2.5,0,0,1-.31-.019c-.155-.02-.266-.036-.31-.046A8.086,8.086,0,0,1,67.646,47.5a8.387,8.387,0,0,1,8.662-4.608,8.055,8.055,0,0,1,7.077,6.37,39.836,39.836,0,0,1,.327,5.187c.015.275,0,.55,0,.89" fill="#0064c7"/>
      <path id="Path_529" data-name="Path 529" d="M95.254,52.674l0,.837a6.659,6.659,0,0,1-6.656,6.62H86.5V55.339l2.2,0a1.9,1.9,0,0,0,1.9-1.9V52.74a2.371,2.371,0,0,1,2.216-2.392,2.329,2.329,0,0,1,2.443,2.326" fill="#0064c7"/>
      <path id="Path_530" data-name="Path 530" d="M111.974,47.9a8.729,8.729,0,0,0-5.441,2.664l-4.4,4.4V42.337a4.519,4.519,0,0,0-4.522,4.521V59.781h6.223l1.75-1.668,1.745,1.778.008-.009a6.891,6.891,0,1,0,4.64-11.986m.1,9.346a2.6,2.6,0,1,1,2.6-2.614,2.542,2.542,0,0,1-2.6,2.614" fill="#0064c7"/>
      <path id="Path_531" data-name="Path 531" d="M128.508,54.772c.372,0,.745,0,1.112,0V59.7l-1.412-.009a6.554,6.554,0,0,1-6.51-6.553v-6.12a4.681,4.681,0,0,1,4.682-4.681v10.31a2.124,2.124,0,0,0,2.128,2.124" fill="#0064c7"/>
      <path id="Path_532" data-name="Path 532" d="M155.681,51.84a27.289,27.289,0,0,1-.868,3.328,10.631,10.631,0,0,1-1.607,2.907c-1.708,2.066-4.579,2.521-6.351-.422-.839,1.149-1.6,2.341-3.22,2.208a3.89,3.89,0,0,1-3.392-2.123,9.266,9.266,0,0,1-6.754,2c-.088-.005-1.314-.016-2.944-.027V54.77c2.244,0,4.158.007,4.487.029a3.549,3.549,0,0,0,2.844-.986c.548-.522,1.147-1,1.675-1.538a1.5,1.5,0,0,1,1.321-.515,12.292,12.292,0,0,0,1.251.008c.055.535.109,1.042.157,1.55.134,1.414,1.12,1.949,2.357,1.272a5.584,5.584,0,0,0,2.15-2.2,1.02,1.02,0,0,1,1.132-.631,6.649,6.649,0,0,0,.931.008c.058.577.109,1.1.162,1.625a1.516,1.516,0,0,0,2.051,1.357,5.763,5.763,0,0,0,1.6-1.023,3.711,3.711,0,0,0,.66-.919c.762-1.177.759-1.179,2.355-.968" fill="#0064c7"/>
      <path id="Path_533" data-name="Path 533" d="M80.855,14.3v4.886a7.131,7.131,0,0,1-6.206-1.666c-1.286,1.508-2.99,1.7-4.765,1.673l-2.342-.04a4.251,4.251,0,0,1-1.694-.382L64.9,18.3v.668c.028.364.043.735.043,1.107A14.045,14.045,0,0,1,52.319,34.047V29.1a9.022,9.022,0,0,0,8.042-8.254S60.3,9.634,60.355,9.688c-.005-1.3-.015-3.275-.022-5.1A4.571,4.571,0,0,1,64.9,0c.016.136,0,6.89,0,11.019a3.141,3.141,0,0,0,3.143,3.141c1.356,0,2.758,0,3.31,0a1.038,1.038,0,0,0-.7-1.389c-.92-.369-1.873-.659-2.865-1V7.636H79.928v4.327H76.6A6,6,0,0,0,80.855,14.3" fill="#0064c7"/>
      <path id="Path_534" data-name="Path 534" d="M56.231,18.439l-.922.29a4.225,4.225,0,0,1,.2,1.275l.958-.2a5.256,5.256,0,0,0-.234-1.36m-2.168-2.855-.809.655a4.31,4.31,0,0,1,1.774,1.809l.89-.392a5.26,5.26,0,0,0-1.855-2.072" fill="#0064c7"/>
      <path id="Path_535" data-name="Path 535" d="M86.448,40.6l-35.165.035a20.352,20.352,0,0,1-7.732-1.515V34.034a2.2,2.2,0,0,1,.505.19,15.7,15.7,0,0,0,7.227,1.749c.441,0,30.282-.15,30.282-.15a2.9,2.9,0,0,0-2.815-3.664c-1.5-.038-3-.009-4.494-.009H70.792c0-1.005.015-2.713.031-4.41A5.191,5.191,0,0,1,76.012,22.6s.015,3.8.015,4.731c.923,0,1.756-.014,2.587,0a7.656,7.656,0,0,1,7.014,4.209,7.151,7.151,0,0,1,.852,3.392c.022,1.777-.032,5.661-.032,5.661" fill="#0064c7"/>
    </g>
  </g>
</svg>
